<?xml version="1.0" encoding="UTF-8"?>
<!DOCTYPE svg PUBLIC "-//W3C//DTD SVG 1.1//EN" "http://www.w3.org/Graphics/SVG/1.1/DTD/svg11.dtd">
<!-- Creator: CorelDRAW X7 -->
<svg xmlns="http://www.w3.org/2000/svg" xml:space="preserve" width="56px" height="56px" version="1.1" style="shape-rendering:geometricPrecision; text-rendering:geometricPrecision; image-rendering:optimizeQuality; fill-rule:evenodd; clip-rule:evenodd"
viewBox="0 0 140011 140012"
 xmlns:xlink="http://www.w3.org/1999/xlink"
 enable-background="new 0 0 56 56">
 <defs>
  <style type="text/css">
   <![CDATA[
    .fil0 {fill:#C23435}
    .fil1 {fill:white}
   ]]>
  </style>
 </defs>
 <g id="Capa_x0020_1">
  <metadata id="CorelCorpID_0Corel-Layer"/>
  <g id="_1623685093456">
   <g>
    <path class="fil0" d="M45942 140011l-45942 0 0 -140011 45942 0 0 140011zm4812 0l0 -140011 89257 0 0 140012 -89257 -1z"/>
    <g>
     <path class="fil1" d="M123608 34154c709,263 1366,577 1964,954 3207,2170 4813,5950 4813,11354l0 33514c0,1558 446,2762 1313,3610 79,70 148,136 228,215 840,819 2371,1247 4594,1269l0 848 -22980 0 0 -848 2196 0c1452,-276 2472,-705 3058,-1269 1018,-1142 1531,-2331 1531,-3605l0 -29914c0,-4104 -731,-7000 -2183,-8698 -1002,-853 -2419,-1457 -4275,-1803 -569,-140 -1190,-244 -1863,-319 -359,-66 -726,-106 -1090,-106 -1952,-34 -4073,994 -6344,3076 -2629,2827 -3934,5653 -3934,8484l0 28420c0,1553 364,2906 1090,4039l223 96 0 109c1138,967 3111,1462 5915,1483l0 849 -23841 1 0 -848c2323,-136 3929,-564 4812,-1269 1356,-792 2008,-2057 1965,-3823 13,-140 13,-279 0,-425l0 -29699c0,-5937 -2552,-9408 -7657,-10397 -218,-43 -433,-79 -656,-105 -280,-22 -577,-22 -867,0 -2140,-70 -4182,957 -6125,3075 -2773,2547 -4158,5378 -4158,8484l0 28215c0,1694 447,3111 1313,4244 62,53 128,122 224,210 989,962 2664,1452 5022,1483l0 849 -23838 3 0 -848c2626,0 4450,-490 5469,-1484 385,-446 669,-1045 874,-1802 93,-429 163,-888 224,-1375l0 -37334c0,-1982 -513,-3185 -1537,-3610l-3500 -1483 1 -1488 15089 -4030 0 14215c53,-463 117,-923 223,-1378l0 1378c438,-4100 2626,-7566 6563,-10397 2451,-1688 4919,-2748 7434,-3182l3182 -210 100 4c599,43 1181,117 1750,210 4232,709 7071,2267 8528,4668 1016,1558 1531,3889 1531,7000 80,-154 149,-293 229,-425 0,127 0,271 0,425 1457,-3256 4086,-6077 7880,-8488 1281,-827 2560,-1502 3828,-2013 1291,-494 2563,-814 3828,-954 723,-141 1527,-215 2403,-215l213 2c2031,138 3776,494 5238,1058zm-101731 -1063c-2919,148 -5391,1347 -7439,3610 -2187,2118 -3137,4453 -2844,7000 590,3535 6125,6651 16631,9333 758,179 1484,394 2188,639 8603,2616 12902,7853 12902,15695l-869 4880c-1019,2682 -2845,5088 -5469,7215 -2095,1536 -4283,2669 -6564,3392 -2315,704 -4721,984 -7220,845 -8900,-276 -15462,-1983 -19689,-5094l0 -12726 2188 0 447 2330c773,2411 2376,4952 4812,7640 3788,4104 8095,6082 12907,5941 2634,-117 4817,-1217 6564,-3294 385,-494 752,-1023 1093,-1587 1321,-1973 1977,-3951 1969,-5937l0 -210c-35,-840 -183,-1693 -441,-2552l-2626 -3919 -110 -210c-532,-460 -1124,-888 -1749,-1273l-10182 -3711c-298,-88 -595,-154 -875,-215 -8318,-1843 -12689,-6436 -13127,-13787 -144,-4384 1826,-8274 5907,-11669 3938,-3110 8313,-4528 13127,-4243 3895,250 6231,460 7010,635l209 -2c3790,713 6712,1773 8751,3185l1970 12304c-1314,425 -2114,564 -2407,425 -1018,-3680 -3137,-7000 -6343,-9972 -726,-704 -1457,-1343 -2188,-1908 -2796,-2061 -5646,-2979 -8533,-2760z"/>
    </g>
   </g>
  </g>
 </g>
</svg>
